<?xml version="1.0" encoding="utf-8"?>
<!-- Generator: Adobe Illustrator 13.0.0, SVG Export Plug-In . SVG Version: 6.00 Build 14948)  -->
<!DOCTYPE svg PUBLIC "-//W3C//DTD SVG 1.1//EN" "http://www.w3.org/Graphics/SVG/1.1/DTD/svg11.dtd">
<svg version="1.1" id="Capa_1" xmlns="http://www.w3.org/2000/svg" xmlns:xlink="http://www.w3.org/1999/xlink" x="0px" y="0px"
	 width="510px" height="510px" viewBox="0 0 510 510" enable-background="new 0 0 510 510" xml:space="preserve">
<g>
	<g id="post-tumblr">
		<path fill="#FFFFFF" stroke="#FCFAFA" d="M460.049,10.777h-408c-28.05,0-51,22.95-51,51v408c0,28.049,22.95,51,51,51h408
			c28.051,0,51-22.951,51-51v-408C511.049,33.727,488.1,10.777,460.049,10.777z M358.049,240.277h-76.5c0,0,0,96.901,0,99.45
			c0,17.85,2.551,28.051,28.051,28.051c22.949,0,48.449,0,48.449,0v76.5c0,0-25.5,2.549-53.549,2.549
			c-66.301,0-99.451-40.799-99.451-86.699c0-30.6,0-119.85,0-119.85h-51v-71.4c61.2-5.1,66.3-51,71.4-81.6h56.1v76.5h76.5V240.277z"
			/>
	</g>
</g>
</svg>
